<?xml version="1.0" encoding="UTF-8" standalone="no"?>
<svg
   xmlns:dc="http://purl.org/dc/elements/1.1/"
   xmlns:cc="http://creativecommons.org/ns#"
   xmlns:rdf="http://www.w3.org/1999/02/22-rdf-syntax-ns#"
   xmlns:svg="http://www.w3.org/2000/svg"
   xmlns="http://www.w3.org/2000/svg"
   xmlns:sodipodi="http://sodipodi.sourceforge.net/DTD/sodipodi-0.dtd"
   xmlns:inkscape="http://www.inkscape.org/namespaces/inkscape"
   width="340.1"
   height="340.1"
   version="1.1"
   id="svg2"
   inkscape:version="0.48.2 r9819"
   sodipodi:docname="bonusThunderDiceRing.svg">
  <metadata
     id="metadata26">
    <rdf:RDF>
      <cc:Work
         rdf:about="">
        <dc:format>image/svg+xml</dc:format>
        <dc:type
           rdf:resource="http://purl.org/dc/dcmitype/StillImage" />
        <dc:title />
      </cc:Work>
    </rdf:RDF>
  </metadata>
  <defs
     id="defs24" />
  <sodipodi:namedview
     pagecolor="#ffffff"
     bordercolor="#666666"
     borderopacity="1"
     objecttolerance="10"
     gridtolerance="10"
     guidetolerance="10"
     inkscape:pageopacity="0"
     inkscape:pageshadow="2"
     inkscape:window-width="1225"
     inkscape:window-height="756"
     id="namedview22"
     showgrid="false"
     inkscape:zoom="1.5818877"
     inkscape:cx="166.42948"
     inkscape:cy="211.77231"
     inkscape:window-x="55"
     inkscape:window-y="0"
     inkscape:window-maximized="1"
     inkscape:current-layer="svg2" />
  <style
     id="style4">.s0{fill:#000;stroke-width:0;stroke:#000;}</style>
  <path
     style="fill:#91180e;stroke:#91180e;stroke-width:0;fill-opacity:1;stroke-opacity:1"
     inkscape:connector-curvature="0"
     id="path8"
     class="s0"
     d="m 240.1,127.80084 v 84.4 q 0,3.2 2.3,5.5 2.3,2.3 5.5,2.3 h 84.3 q 3.2,0 5.5,-2.3 2.3,-2.3 2.3,-5.5 v -84.4 q 0,-3.2 -2.3,-5.5 -2.3,-2.3 -5.5,-2.3 h -84.3 q -3.2,0 -5.5,2.3 -2.3,2.3 -2.3,5.5 z m 9,13.2 q 0,-4.9 3.5,-8.5 3.5,-3.5 8.5,-3.5 4.9,0 8.5,3.5 3.5,3.5 3.5,8.5 0,4.9 -3.5,8.5 -3.5,3.5 -8.5,3.5 -4.9,0 -8.5,-3.5 -3.5,-3.5 -3.5,-8.5 z m 0,58 q 0,-4.9 3.5,-8.5 3.5,-3.5 8.5,-3.5 4.9,0 8.5,3.5 3.5,3.5 3.5,8.5 0,4.9 -3.5,8.4 -3.5,3.5 -8.5,3.5 -4.9,0 -8.5,-3.5 -3.5,-3.5 -3.5,-8.4 z m 58,-58 q 0,-4.9 3.5,-8.5 3.5,-3.5 8.5,-3.5 4.9,0 8.5,3.5 3.5,3.5 3.5,8.5 0,4.9 -3.5,8.5 -3.5,3.5 -8.5,3.5 -4.9,0 -8.5,-3.5 -3.5,-3.5 -3.5,-8.5 z m 0,58 q 0,-4.9 3.5,-8.5 3.5,-3.5 8.5,-3.5 4.9,0 8.5,3.5 3.5,3.5 3.5,8.5 0,4.9 -3.5,8.4 -3.5,3.5 -8.5,3.5 -4.9,0 -8.5,-3.5 -3.5,-3.5 -3.5,-8.4 z" />
  <path
     style="fill:#91180e;stroke:#91180e;stroke-width:0;fill-opacity:1;stroke-opacity:1"
     inkscape:connector-curvature="0"
     id="path14"
     class="s0"
     d="m 60.1,247.80084 v 84.4 q 0,3.2 2.3,5.5 2.3,2.3 5.5,2.3 h 84.3 q 3.2,0 5.5,-2.3 2.3,-2.3 2.3,-5.5 v -84.4 q 0,-3.2 -2.3,-5.5 -2.3,-2.3 -5.5,-2.3 H 67.9 q -3.2,0 -5.5,2.3 -2.3,2.3 -2.3,5.5 z m 9,13.2 q 0,-4.9 3.5,-8.5 3.5,-3.5 8.5,-3.5 4.9,0 8.5,3.5 3.5,3.5 3.5,8.5 0,4.9 -3.5,8.5 -3.5,3.5 -8.5,3.5 -4.9,0 -8.5,-3.5 -3.5,-3.5 -3.5,-8.5 z m 0,58 q 0,-4.9 3.5,-8.5 3.5,-3.5 8.5,-3.5 4.9,0 8.5,3.5 3.5,3.5 3.5,8.5 0,4.9 -3.5,8.4 -3.5,3.5 -8.5,3.5 -4.9,0 -8.5,-3.5 -3.5,-3.5 -3.5,-8.4 z m 28.9,-29 q 0,-4.9 3.5,-8.5 3.5,-3.5 8.5,-3.5 4.9,0 8.5,3.5 3.5,3.5 3.5,8.5 0,4.9 -3.5,8.4 -3.5,3.5 -8.5,3.5 -4.9,0 -8.5,-3.5 -3.5,-3.5 -3.5,-8.4 z m 29,-29 q 0,-4.9 3.5,-8.5 3.5,-3.5 8.5,-3.5 4.9,0 8.5,3.5 3.5,3.5 3.5,8.5 0,4.9 -3.5,8.5 -3.5,3.5 -8.5,3.5 -4.9,0 -8.5,-3.5 -3.5,-3.5 -3.5,-8.5 z m 0,58 q 0,-4.9 3.5,-8.5 3.5,-3.5 8.5,-3.5 4.9,0 8.5,3.5 3.5,3.5 3.5,8.5 0,4.9 -3.5,8.4 -3.5,3.5 -8.5,3.5 -4.9,0 -8.5,-3.5 -3.5,-3.5 -3.5,-8.4 z m 53.1,-71.2 v 84.4 q 0,3.2 2.3,5.5 2.3,2.3 5.5,2.3 h 84.3 q 3.2,0 5.5,-2.3 2.3,-2.3 2.3,-5.5 v -84.4 q 0,-3.2 -2.3,-5.5 -2.3,-2.3 -5.5,-2.3 h -84.3 q -3.2,0 -5.5,2.3 -2.3,2.3 -2.3,5.5 z m 9,13.2 q 0,-4.9 3.5,-8.5 3.5,-3.5 8.5,-3.5 4.9,0 8.5,3.5 3.5,3.5 3.5,8.5 0,4.9 -3.5,8.5 -3.5,3.5 -8.5,3.5 -4.9,0 -8.5,-3.5 -3.5,-3.5 -3.5,-8.5 z m 0,29 q 0,-4.9 3.5,-8.5 3.5,-3.5 8.5,-3.5 4.9,0 8.5,3.5 3.5,3.5 3.5,8.5 0,4.9 -3.5,8.4 -3.5,3.5 -8.5,3.5 -4.9,0 -8.5,-3.5 -3.5,-3.5 -3.5,-8.4 z m 0,29 q 0,-4.9 3.5,-8.5 3.5,-3.5 8.5,-3.5 4.9,0 8.5,3.5 3.5,3.5 3.5,8.5 0,4.9 -3.5,8.4 -3.5,3.5 -8.5,3.5 -4.9,0 -8.5,-3.5 -3.5,-3.5 -3.5,-8.4 z m 58,-58 q 0,-4.9 3.5,-8.5 3.5,-3.5 8.5,-3.5 4.9,0 8.5,3.5 3.5,3.5 3.5,8.5 0,4.9 -3.5,8.5 -3.5,3.5 -8.5,3.5 -4.9,0 -8.5,-3.5 -3.5,-3.5 -3.5,-8.5 z m 0,29 q 0,-4.9 3.5,-8.5 3.5,-3.5 8.5,-3.5 4.9,0 8.5,3.5 3.5,3.5 3.5,8.5 0,4.9 -3.5,8.4 -3.5,3.5 -8.5,3.5 -4.9,0 -8.5,-3.5 -3.5,-3.5 -3.5,-8.4 z m 0,29 q 0,-4.9 3.5,-8.5 3.5,-3.5 8.5,-3.5 4.9,0 8.5,3.5 3.5,3.5 3.5,8.5 0,4.9 -3.5,8.4 -3.5,3.5 -8.5,3.5 -4.9,0 -8.5,-3.5 -3.5,-3.5 -3.5,-8.4 z" />
  <path
     style="fill:#91180e;stroke:#91180e;stroke-width:0;stroke-opacity:1;fill-opacity:1"
     inkscape:connector-curvature="0"
     id="path18"
     class="s0"
     d="m 60.1,7.80082 v 84.4 q 0,3.2 2.3,5.5 2.3,2.3 5.5,2.3 h 84.3 q 3.2,0 5.5,-2.3 2.3,-2.3 2.3,-5.5 v -84.4 q 0,-3.2 -2.3,-5.5 -2.3,-2.3 -5.5,-2.3 H 67.9 q -3.2,0 -5.5,2.3 -2.3,2.3 -2.3,5.5 z m 37.9,42.2 q 0,-4.9 3.5,-8.5 3.5,-3.5 8.5,-3.5 4.9,0 8.5,3.5 3.5,3.5 3.5,8.5 0,4.9 -3.5,8.4 -3.5,3.5 -8.5,3.5 -4.9,0 -8.5,-3.5 -3.5,-3.5 -3.5,-8.4 z m 82.1,-42.2 v 84.4 q 0,3.2 2.3,5.5 2.3,2.3 5.5,2.3 h 84.3 q 3.2,0 5.5,-2.3 2.3,-2.3 2.3,-5.5 v -84.4 q 0,-3.2 -2.3,-5.5 -2.3,-2.3 -5.5,-2.3 h -84.3 q -3.2,0 -5.5,2.3 -2.3,2.3 -2.3,5.5 z m 9,13.2 q 0,-4.9 3.5,-8.5 3.5,-3.5 8.5,-3.5 4.9,0 8.5,3.5 3.5,3.5 3.5,8.5 0,4.9 -3.5,8.5 -3.5,3.5 -8.5,3.5 -4.9,0 -8.5,-3.5 -3.5,-3.5 -3.5,-8.5 z m 58,58 q 0,-4.9 3.5,-8.5 3.5,-3.5 8.5,-3.5 4.9,0 8.5,3.5 3.5,3.5 3.5,8.5 0,4.9 -3.5,8.4 -3.5,3.5 -8.5,3.5 -4.9,0 -8.5,-3.5 -3.5,-3.5 -3.5,-8.4 z" />
  <path
     style="fill:#91180e;stroke:#91180e;stroke-width:0;stroke-opacity:1;fill-opacity:1"
     inkscape:connector-curvature="0"
     id="path20"
     class="s0"
     d="m 0.1,127.80084 v 84.4 q 0,3.2 2.3,5.5 2.3,2.3 5.5,2.3 h 84.3 q 3.2,0 5.5,-2.3 2.3,-2.3 2.3,-5.5 v -84.4 q 0,-3.2 -2.3,-5.5 -2.3,-2.3 -5.5,-2.3 H 7.9 q -3.2,0 -5.5,2.3 -2.3,2.3 -2.3,5.5 z m 9,13.2 q 0,-4.9 3.5,-8.5 3.5,-3.5 8.5,-3.5 4.9,0 8.5,3.5 3.5,3.5 3.5,8.5 0,4.9 -3.5,8.5 -3.5,3.5 -8.5,3.5 -4.9,0 -8.5,-3.5 -3.5,-3.5 -3.5,-8.5 z m 29,29 q 0,-4.9 3.5,-8.5 3.5,-3.5 8.5,-3.5 4.9,0 8.5,3.5 3.5,3.5 3.5,8.5 0,4.9 -3.5,8.4 -3.5,3.5 -8.5,3.5 -4.9,0 -8.5,-3.5 -3.5,-3.5 -3.5,-8.4 z m 29,29 q 0,-4.9 3.5,-8.5 3.5,-3.5 8.5,-3.5 4.9,0 8.5,3.5 3.5,3.5 3.5,8.5 0,4.9 -3.5,8.4 -3.5,3.5 -8.5,3.5 -4.9,0 -8.5,-3.5 -3.5,-3.5 -3.5,-8.4 z" />
</svg>
