<?xml version="1.0" encoding="UTF-8" standalone="no"?>
<svg
   xmlns:dc="http://purl.org/dc/elements/1.1/"
   xmlns:cc="http://creativecommons.org/ns#"
   xmlns:rdf="http://www.w3.org/1999/02/22-rdf-syntax-ns#"
   xmlns:svg="http://www.w3.org/2000/svg"
   xmlns="http://www.w3.org/2000/svg"
   xmlns:sodipodi="http://sodipodi.sourceforge.net/DTD/sodipodi-0.dtd"
   xmlns:inkscape="http://www.inkscape.org/namespaces/inkscape"
   version="1.1"
   width="2049"
   height="2049"
   id="svg2"
   inkscape:version="0.48.2 r9819"
   sodipodi:docname="bsd1.svg">
  <metadata
     id="metadata10">
    <rdf:RDF>
      <cc:Work
         rdf:about="">
        <dc:format>image/svg+xml</dc:format>
        <dc:type
           rdf:resource="http://purl.org/dc/dcmitype/StillImage" />
      </cc:Work>
    </rdf:RDF>
  </metadata>
  <defs
     id="defs8" />
  <sodipodi:namedview
     pagecolor="#ffffff"
     bordercolor="#666666"
     borderopacity="1"
     objecttolerance="10"
     gridtolerance="10"
     guidetolerance="10"
     inkscape:pageopacity="0"
     inkscape:pageshadow="2"
     inkscape:window-width="1072"
     inkscape:window-height="650"
     id="namedview6"
     showgrid="false"
     inkscape:zoom="0.11517814"
     inkscape:cx="-65.116527"
     inkscape:cy="1024.5"
     inkscape:window-x="71"
     inkscape:window-y="0"
     inkscape:window-maximized="0"
     inkscape:current-layer="svg2" />
  <path
     d="m 0.5,159.5 v 1729 q 0,66 47,113 47,47 113,47 h 1728 q 66,0 113,-47 47,-47 47,-113 v -1729 q 0,-66 -47,-112.5 -47,-46.5 -113,-46.5 h -1728 q -66,0 -113,46.5 -47,46.5 -47,112.5 z m 61,33 q 0,-54 39,-92.5 39,-38.5 93,-38.5 h 1662 q 54,0 93,38.5 39,38.5 39,92.5 v 1663 q 0,54 -39,92.5 -39,38.5 -93,38.5 h -1662 q -54,0 -93,-38.5 -39,-38.5 -39,-92.5 v -1663 z m 773,832 q 0,78 56,134 56,56 134,56 78,0 134,-56 56,-56 56,-134 0,-78 -56,-134.5 -56,-56.5 -134,-56.5 -78,0 -134,56.5 -56,56.5 -56,134.5 z"
     style="fill:#91180e;stroke:#91180e;fill-opacity:1;stroke-opacity:1"
     id="path4"
     inkscape:connector-curvature="0" />
</svg>
