<?xml version="1.0" encoding="UTF-8" standalone="no"?>
<svg
   xmlns:dc="http://purl.org/dc/elements/1.1/"
   xmlns:cc="http://creativecommons.org/ns#"
   xmlns:rdf="http://www.w3.org/1999/02/22-rdf-syntax-ns#"
   xmlns:svg="http://www.w3.org/2000/svg"
   xmlns="http://www.w3.org/2000/svg"
   xmlns:sodipodi="http://sodipodi.sourceforge.net/DTD/sodipodi-0.dtd"
   xmlns:inkscape="http://www.inkscape.org/namespaces/inkscape"
   version="1.1"
   width="2049"
   height="2049"
   id="svg3017"
   inkscape:version="0.48.2 r9819"
   sodipodi:docname="bsd5.svg">
  <metadata
     id="metadata3025">
    <rdf:RDF>
      <cc:Work
         rdf:about="">
        <dc:format>image/svg+xml</dc:format>
        <dc:type
           rdf:resource="http://purl.org/dc/dcmitype/StillImage" />
      </cc:Work>
    </rdf:RDF>
  </metadata>
  <defs
     id="defs3023" />
  <sodipodi:namedview
     pagecolor="#ffffff"
     bordercolor="#666666"
     borderopacity="1"
     objecttolerance="10"
     gridtolerance="10"
     guidetolerance="10"
     inkscape:pageopacity="0"
     inkscape:pageshadow="2"
     inkscape:window-width="1176"
     inkscape:window-height="564"
     id="namedview3021"
     showgrid="false"
     inkscape:zoom="0.11517814"
     inkscape:cx="-65.116527"
     inkscape:cy="1024.5"
     inkscape:window-x="111"
     inkscape:window-y="23"
     inkscape:window-maximized="0"
     inkscape:current-layer="svg3017" />
  <path
     d="m 0.5,159.5 v 1729 q 0,66 47,113 47,47 113,47 h 1728 q 66,0 113,-47 47,-47 47,-113 v -1729 q 0,-66 -47,-112.5 -47,-46.5 -113,-46.5 h -1728 q -66,0 -113,46.5 -47,46.5 -47,112.5 z m 61,33 q 0,-54 39,-92.5 39,-38.5 93,-38.5 h 1662 q 54,0 93,38.5 39,38.5 39,92.5 v 1663 q 0,54 -39,92.5 -39,38.5 -93,38.5 h -1662 q -54,0 -93,-38.5 -39,-38.5 -39,-92.5 v -1663 z m 320,379 q 0,78 56,134.5 56,56.5 134,56.5 78,0 134.5,-56.5 56.5,-56.5 56.5,-134.5 0,-78 -56.5,-134 -56.5,-56 -134.5,-56 -78,0 -134,56 -56,56 -56,134 z m 0,905 q 0,78 56,134.5 56,56.5 134,56.5 78,0 134.5,-56.5 56.5,-56.5 56.5,-134.5 0,-78 -56.5,-134 -56.5,-56 -134.5,-56 -78,0 -134,56 -56,56 -56,134 z m 453,-452 q 0,78 56,134 56,56 134,56 78,0 134,-56 56,-56 56,-134 0,-78 -56,-134.5 -56,-56.5 -134,-56.5 -78,0 -134,56.5 -56,56.5 -56,134.5 z m 452,-453 q 0,78 56.5,134.5 56.5,56.5 134.5,56.5 78,0 134,-56.5 56,-56.5 56,-134.5 0,-78 -56,-134 -56,-56 -134,-56 -78,0 -134.5,56 -56.5,56 -56.5,134 z m 0,905 q 0,78 56.5,134.5 56.5,56.5 134.5,56.5 78,0 134,-56.5 56,-56.5 56,-134.5 0,-78 -56,-134 -56,-56 -134,-56 -78,0 -134.5,56 -56.5,56 -56.5,134 z"
     style="fill:#91180e;stroke:#91180e;stroke-opacity:1;fill-opacity:1"
     id="path3019"
     inkscape:connector-curvature="0" />
</svg>
