<?xml version="1.0" encoding="UTF-8" standalone="no"?>
<svg
   xmlns:dc="http://purl.org/dc/elements/1.1/"
   xmlns:cc="http://creativecommons.org/ns#"
   xmlns:rdf="http://www.w3.org/1999/02/22-rdf-syntax-ns#"
   xmlns:svg="http://www.w3.org/2000/svg"
   xmlns="http://www.w3.org/2000/svg"
   xmlns:sodipodi="http://sodipodi.sourceforge.net/DTD/sodipodi-0.dtd"
   xmlns:inkscape="http://www.inkscape.org/namespaces/inkscape"
   version="1.1"
   width="2049"
   height="2049"
   id="svg3027"
   inkscape:version="0.48.2 r9819"
   sodipodi:docname="bsd6.svg">
  <metadata
     id="metadata3035">
    <rdf:RDF>
      <cc:Work
         rdf:about="">
        <dc:format>image/svg+xml</dc:format>
        <dc:type
           rdf:resource="http://purl.org/dc/dcmitype/StillImage" />
      </cc:Work>
    </rdf:RDF>
  </metadata>
  <defs
     id="defs3033" />
  <sodipodi:namedview
     pagecolor="#ffffff"
     bordercolor="#666666"
     borderopacity="1"
     objecttolerance="10"
     gridtolerance="10"
     guidetolerance="10"
     inkscape:pageopacity="0"
     inkscape:pageshadow="2"
     inkscape:window-width="909"
     inkscape:window-height="604"
     id="namedview3031"
     showgrid="false"
     fit-margin-top="0"
     fit-margin-left="0"
     fit-margin-right="0"
     fit-margin-bottom="0"
     inkscape:zoom="0.11517814"
     inkscape:cx="-411.90468"
     inkscape:cy="586.00002"
     inkscape:window-x="72"
     inkscape:window-y="5"
     inkscape:window-maximized="0"
     inkscape:current-layer="svg3027" />
  <path
     d="M 0.5,159.50001 V 1888.5 q 0,66 46.99999,113 47,47 113,47 H 1888.5 q 66,0 113,-47 47,-47 47,-113 V 159.50001 q 0,-65.999995 -47,-112.499995 -47,-46.4999995 -113,-46.4999995 H 160.49999 q -66,0 -113,46.4999995 Q 0.5,93.500015 0.5,159.50001 z m 60.99999,33 q 0,-54 39,-92.5 39,-38.499995 93,-38.499995 H 1855.5 q 54,0 93,38.499995 39,38.5 39,92.5 V 1855.5 q 0,54 -39,92.5 -39,38.5 -93,38.5 H 193.49999 q -54,0 -93,-38.5 -39,-38.5 -39,-92.5 V 192.50001 z m 320,379 q 0,78 56,134.5 56,56.5 134,56.5 78,0 134.5,-56.5 56.5,-56.5 56.5,-134.5 0,-78 -56.5,-134 -56.5,-56 -134.5,-56 -78,0 -134,56 -56,56 -56,134 z m 0,452.99999 q 0,78 56,134 56,56 134,56 78,0 134.5,-56 56.5,-56 56.5,-134 0,-78.00002 -56.5,-134.49999 -56.5,-56.5 -134.5,-56.5 -78,0 -134,56.5 -56,56.49997 -56,134.49999 z m 0,452 q 0,78 56,134.5 56,56.5 134,56.5 78,0 134.5,-56.5 56.5,-56.5 56.5,-134.5 0,-78 -56.5,-134 -56.5,-56 -134.5,-56 -78,0 -134,56 -56,56 -56,134 z M 1286.5,571.50001 q 0,78 56.5,134.5 56.5,56.5 134.5,56.5 78,0 134,-56.5 56,-56.5 56,-134.5 0,-78 -56,-134 -56,-56 -134,-56 -78,0 -134.5,56 -56.5,56 -56.5,134 z m 0,452.99999 q 0,78 56.5,134 56.5,56 134.5,56 78,0 134,-56 56,-56 56,-134 0,-78.00002 -56,-134.49999 -56,-56.5 -134,-56.5 -78,0 -134.5,56.5 -56.5,56.49997 -56.5,134.49999 z m 0,452 q 0,78 56.5,134.5 56.5,56.5 134.5,56.5 78,0 134,-56.5 56,-56.5 56,-134.5 0,-78 -56,-134 -56,-56 -134,-56 -78,0 -134.5,56 -56.5,56 -56.5,134 z"
     style="fill:#91180e;stroke:#000000;fill-opacity:1"
     id="path3029"
     inkscape:connector-curvature="0" />
</svg>
