<?xml version="1.0" encoding="UTF-8" standalone="no"?>
<svg
   xmlns:dc="http://purl.org/dc/elements/1.1/"
   xmlns:cc="http://creativecommons.org/ns#"
   xmlns:rdf="http://www.w3.org/1999/02/22-rdf-syntax-ns#"
   xmlns:svg="http://www.w3.org/2000/svg"
   xmlns="http://www.w3.org/2000/svg"
   xmlns:sodipodi="http://sodipodi.sourceforge.net/DTD/sodipodi-0.dtd"
   xmlns:inkscape="http://www.inkscape.org/namespaces/inkscape"
   version="1.1"
   width="2049"
   height="2049"
   id="svg2987"
   inkscape:version="0.48.2 r9819"
   sodipodi:docname="btd4.svg">
  <metadata
     id="metadata2995">
    <rdf:RDF>
      <cc:Work
         rdf:about="">
        <dc:format>image/svg+xml</dc:format>
        <dc:type
           rdf:resource="http://purl.org/dc/dcmitype/StillImage" />
      </cc:Work>
    </rdf:RDF>
  </metadata>
  <defs
     id="defs2993" />
  <sodipodi:namedview
     pagecolor="#ffffff"
     bordercolor="#666666"
     borderopacity="1"
     objecttolerance="10"
     gridtolerance="10"
     guidetolerance="10"
     inkscape:pageopacity="0"
     inkscape:pageshadow="2"
     inkscape:window-width="1060"
     inkscape:window-height="688"
     id="namedview2991"
     showgrid="false"
     inkscape:zoom="0.11517814"
     inkscape:cx="1024.5"
     inkscape:cy="1024.5"
     inkscape:window-x="216"
     inkscape:window-y="0"
     inkscape:window-maximized="0"
     inkscape:current-layer="svg2987" />
  <path
     d="m0.5 159.5v1729q0 66 47 113 47 47 113 47h1728q66 0 113-47 47-47 47-113v-1729q0-66-47-112.5-47-46.5-113-46.5h-1728q-66 0-113 46.5-47 46.5-47 112.5zm184 271q0-101 72.5-173.5 72.5-72.5 173.5-72.5 101 0 173.5 72.5 72.5 72.5 72.5 173.5 0 101-72.5 173.5-72.5 72.5-173.5 72.5-101 0-173.5-72.5-72.5-72.5-72.5-173.5zm0 1188q0-101 72.5-173.5 72.5-72.5 173.5-72.5 101 0 173.5 72.5 72.5 72.5 72.5 173.5 0 101-72.5 173-72.5 72-173.5 72-101 0-173.5-72-72.5-72-72.5-173zm1188-1188q0-101 72.5-173.5 72.5-72.5 173.5-72.5 101 0 173.5 72.5 72.5 72.5 72.5 173.5 0 101-72.5 173.5-72.5 72.5-173.5 72.5-101 0-173.5-72.5-72.5-72.5-72.5-173.5zm0 1188q0-101 72.5-173.5 72.5-72.5 173.5-72.5 101 0 173.5 72.5 72.5 72.5 72.5 173.5 0 101-72.5 173-72.5 72-173.5 72-101 0-173.5-72-72.5-72-72.5-173z"
     style="fill:#91180e;stroke:#91180e;fill-opacity:1;stroke-opacity:1"
     id="path2989" />
</svg>
