<svg xmlns:svg="http://www.w3.org/2000/svg" xmlns="http://www.w3.org/2000/svg" viewBox="0 0 512 512" version="1.1" width="100%" height="100%"><style>.s0{fill-rule:evenodd;fill:#fff;stroke-width:19;stroke:#000;}.s1{fill:#fff;stroke-width:19;stroke:#000;}</style><path d="M96.389995 147.75272C219.29918 112.08183 389.71017 131.86014 460.3773 151.24132 481.30477 512.86534 78.630237 586.14494 96.389995 147.75272z" class="s0"/><path d="m365.2084 241.49277 0.0224-192.625067c21.02839-14.87424 75.842-9.456421 95.83504 9.521832l-2.23141 177.728395m-190.20114 10.49177 0.0224-215.447557c21.02839-15.472276 75.84199-11.613084 95.83504 6.798905l-0.0224 204.221322m-191.66821 3.12287 0.0224-217.2155C193.84907 9.9281781 248.66454 6.7772835 268.65759 22.630806l-0.0224 223.048204M76.959478 205.81066 76.981904 58.522224C98.008426 38.26941 152.8239 29.667056 172.81694 43.532114l-0.0224 162.284156-95.835042-0.006z" class="s1"/><path d="M327.51166 199.01362C240.80973 225.10662 155.33938 231.34861 75.806393 212.44511 30.075437 72.7162 344.6547 96.688042 327.51166 199.01362z" class="s1"/><path d="M66.013577 234.45838C190.99346 262.70057 316.54044 271.58942 455.35174 227.97961" class="s1"/><path d="M263.56682 417.59712C285.3521 282.35722 216.68091 149.94489 58.304537 207.21978 67.891779 323.41042 144.6383 436.77348 263.56682 417.59712z" class="s0"/><path d="m124.83588 477.00999 0.0112-99.01584c66.64534 32.76669 207.74786 20.63033 285.00832-0.0374l-0.0131 99.01583c-73.45359 32.0042-227.17464 31.16321-285.00832 0.0374z" class="s1"/></svg>