<?xml version="1.0" encoding="UTF-8" standalone="no"?>
<svg
   xmlns:dc="http://purl.org/dc/elements/1.1/"
   xmlns:cc="http://creativecommons.org/ns#"
   xmlns:rdf="http://www.w3.org/1999/02/22-rdf-syntax-ns#"
   xmlns:svg="http://www.w3.org/2000/svg"
   xmlns="http://www.w3.org/2000/svg"
   xmlns:sodipodi="http://sodipodi.sourceforge.net/DTD/sodipodi-0.dtd"
   xmlns:inkscape="http://www.inkscape.org/namespaces/inkscape"
   width="340.1"
   height="340.1"
   version="1.1"
   id="svg3037"
   inkscape:version="0.48.2 r9819"
   sodipodi:docname="thunderDiceRing.svg">
  <metadata
     id="metadata3061">
    <rdf:RDF>
      <cc:Work
         rdf:about="">
        <dc:format>image/svg+xml</dc:format>
        <dc:type
           rdf:resource="http://purl.org/dc/dcmitype/StillImage" />
        <dc:title></dc:title>
      </cc:Work>
    </rdf:RDF>
  </metadata>
  <defs
     id="defs3059" />
  <sodipodi:namedview
     pagecolor="#ffffff"
     bordercolor="#666666"
     borderopacity="1"
     objecttolerance="10"
     gridtolerance="10"
     guidetolerance="10"
     inkscape:pageopacity="0"
     inkscape:pageshadow="2"
     inkscape:window-width="1225"
     inkscape:window-height="756"
     id="namedview3057"
     showgrid="false"
     inkscape:zoom="0.97245298"
     inkscape:cx="-24.456307"
     inkscape:cy="155.6524"
     inkscape:window-x="55"
     inkscape:window-y="0"
     inkscape:window-maximized="1"
     inkscape:current-layer="svg3037" />
  <style
     id="style3039">.s0{fill:#000;stroke-width:0;stroke:#000;}</style>
  <path
     d="M 60.0625,7.8780361 V 92.231516 q 0,3.21996 2.29301,5.51298 2.29301,2.293014 5.51298,2.293014 h 84.30467 q 3.21997,0 5.51299,-2.293014 2.29301,-2.29302 2.29301,-5.51298 V 7.8780361 q 0,-3.21997 -2.29301,-5.48856 -2.29302,-2.26862 -5.51299,-2.26862 H 67.86849 q -3.21997,0 -5.51298,2.26862 -2.29301,2.26859 -2.29301,5.48856 z m 2.97603,1.60999 q 0,-2.63452 1.90271,-4.51284 1.90271,-1.8783 4.53724,-1.8783 h 81.0847 q 2.63453,0 4.53723,1.8783 1.90271,1.87832 1.90271,4.51284 V 90.621526 q 0,2.63452 -1.90271,4.51284 -1.9027,1.87831 -4.53723,1.87831 h -81.0847 q -2.63453,0 -4.53724,-1.87831 -1.90271,-1.87832 -1.90271,-4.51284 V 9.4880261 z m 37.71269,40.5911399 q 0,3.80542 2.73209,6.53751 2.7321,2.7321 6.53752,2.7321 3.80542,0 6.53751,-2.7321 2.7321,-2.73209 2.7321,-6.53751 0,-3.8054 -2.7321,-6.56189 -2.73209,-2.7565 -6.53751,-2.7565 -3.80542,0 -6.53752,2.7565 -2.73209,2.75649 -2.73209,6.56189 z"
     style="fill:#000000;stroke:#000000;stroke-width:0.04878743"
     id="path4"
     inkscape:connector-curvature="0" />
  <path
     d="M 180.0625,7.8780651 V 92.231516 q 0,3.21996 2.29301,5.51298 2.29302,2.293014 5.51298,2.293014 h 84.30468 q 3.21996,0 5.51297,-2.293014 2.29301,-2.29302 2.29301,-5.51298 V 7.8780651 q 0,-3.219968 -2.29301,-5.488584 -2.29301,-2.268623 -5.51297,-2.268623 h -84.30468 q -3.21996,0 -5.51298,2.268623 -2.29301,2.268616 -2.29301,5.488584 z m 2.97604,1.609987 q 0,-2.63454 1.90271,-4.51284 1.90271,-1.87832 4.53723,-1.87832 h 81.0847 q 2.63452,0 4.53723,1.87832 1.90271,1.8783 1.90271,4.51284 V 90.621526 q 0,2.63454 -1.90271,4.51284 -1.90271,1.87833 -4.53723,1.87833 h -81.0847 q -2.63452,0 -4.53723,-1.87833 -1.90271,-1.8783 -1.90271,-4.51284 V 9.4880521 z m 15.61198,18.4904269 q 0,3.805423 2.73209,6.561921 2.73209,2.756466 6.53752,2.756466 3.80542,0 6.5619,-2.756466 2.75649,-2.756498 2.75649,-6.561921 0,-3.805429 -2.75649,-6.537522 -2.75648,-2.732093 -6.5619,-2.732093 -3.80543,0 -6.53752,2.732093 -2.73209,2.732093 -2.73209,6.537522 z m 44.15262,44.152617 q 0,3.80543 2.75649,6.5619 2.75648,2.75649 6.5619,2.75649 3.80542,0 6.53752,-2.75649 2.73209,-2.75647 2.73209,-6.5619 0,-3.80542 -2.73209,-6.53751 -2.7321,-2.7321 -6.53752,-2.7321 -3.80542,0 -6.5619,2.7321 -2.75649,2.73209 -2.75649,6.53751 z"
     style="fill:#000000;stroke:#000000;stroke-width:0.04878743"
     id="path2989"
     inkscape:connector-curvature="0" />
  <path
     d="m 0.0625,127.87803 v 84.35348 q 0,3.21998 2.293,5.51299 2.29302,2.29301 5.51299,2.29301 h 84.30467 q 3.21997,0 5.51299,-2.29301 2.29301,-2.29301 2.29301,-5.51299 v -84.35348 q 0,-3.21997 -2.29301,-5.48857 -2.29302,-2.26861 -5.51299,-2.26861 H 7.86849 q -3.21997,0 -5.51299,2.26861 -2.293,2.2686 -2.293,5.48857 z m 2.97604,1.60999 q 0,-2.63452 1.9027,-4.51284 1.9027,-1.8783 4.53723,-1.8783 h 81.08471 q 2.63452,0 4.53723,1.8783 1.90271,1.87832 1.90271,4.51284 v 81.13351 q 0,2.63452 -1.90271,4.51284 -1.90271,1.87832 -4.53723,1.87832 H 9.47847 q -2.63453,0 -4.53723,-1.87832 -1.9027,-1.87832 -1.9027,-4.51284 v -81.13351 z m 15.61197,18.49045 q 0,3.80543 2.73209,6.5619 2.7321,2.75649 6.53752,2.75649 3.80541,0 6.56191,-2.75649 2.75649,-2.75647 2.75649,-6.5619 0,-3.80543 -2.75649,-6.53752 -2.7565,-2.73209 -6.56191,-2.73209 -3.80542,0 -6.53752,2.73209 -2.73209,2.73209 -2.73209,6.53752 z m 22.10071,22.10069 q 0,3.80543 2.73209,6.53753 2.73209,2.73209 6.53751,2.73209 3.80542,0 6.53752,-2.73209 2.7321,-2.7321 2.7321,-6.53753 0,-3.8054 -2.7321,-6.56189 -2.7321,-2.7565 -6.53752,-2.7565 -3.80542,0 -6.53751,2.7565 -2.73209,2.75649 -2.73209,6.56189 z m 22.05191,22.05194 q 0,3.80541 2.75649,6.5619 2.75649,2.7565 6.56191,2.7565 3.80542,0 6.53752,-2.7565 2.7321,-2.75649 2.7321,-6.5619 0,-3.80542 -2.7321,-6.53751 -2.7321,-2.7321 -6.53752,-2.7321 -3.80542,0 -6.56191,2.7321 -2.75649,2.73209 -2.75649,6.53751 z"
     style="fill:#000000;stroke:#000000;stroke-width:0.04878743"
     id="path2999"
     inkscape:connector-curvature="0" />
  <path
     d="m 240.0625,127.87807 v 84.35345 q 0,3.21996 2.29303,5.51297 2.29299,2.29302 5.51296,2.29302 h 84.30465 q 3.21997,0 5.51299,-2.29302 2.29303,-2.29301 2.29303,-5.51297 v -84.35345 q 0,-3.21998 -2.29303,-5.48859 -2.29302,-2.2686 -5.51299,-2.2686 h -84.30465 q -3.21997,0 -5.51296,2.2686 -2.29303,2.26861 -2.29303,5.48859 z m 2.97603,1.60998 q 0,-2.63452 1.90273,-4.51284 1.9027,-1.8783 4.53721,-1.8783 h 81.08469 q 2.63453,0 4.53724,1.8783 1.9027,1.87832 1.9027,4.51284 v 81.13348 q 0,2.63452 -1.9027,4.51284 -1.90271,1.87831 -4.53724,1.87831 h -81.08469 q -2.63451,0 -4.53721,-1.87831 -1.90273,-1.87832 -1.90273,-4.51284 v -81.13348 z m 15.61197,18.49045 q 0,3.80539 2.73209,6.56189 2.73212,2.75649 6.53753,2.75649 3.80542,0 6.56191,-2.75649 2.7565,-2.7565 2.7565,-6.56189 0,-3.80543 -2.7565,-6.53752 -2.75649,-2.7321 -6.56191,-2.7321 -3.80541,0 -6.53753,2.7321 -2.73209,2.73209 -2.73209,6.53752 z m 0,44.15259 q 0,3.80542 2.73209,6.56192 2.73212,2.75649 6.53753,2.75649 3.80542,0 6.56191,-2.75649 2.7565,-2.7565 2.7565,-6.56192 0,-3.8054 -2.7565,-6.53749 -2.75649,-2.73212 -6.56191,-2.73212 -3.80541,0 -6.53753,2.73212 -2.73209,2.73209 -2.73209,6.53749 z m 44.15262,-44.15259 q 0,3.80539 2.7565,6.56189 2.7565,2.75649 6.56189,2.75649 3.80543,0 6.53752,-2.75649 2.7321,-2.7565 2.7321,-6.56189 0,-3.80543 -2.7321,-6.53752 -2.73209,-2.7321 -6.53752,-2.7321 -3.80539,0 -6.56189,2.7321 -2.7565,2.73209 -2.7565,6.53752 z m 0,44.15259 q 0,3.80542 2.7565,6.56192 2.7565,2.75649 6.56189,2.75649 3.80543,0 6.53752,-2.75649 2.7321,-2.7565 2.7321,-6.56192 0,-3.8054 -2.7321,-6.53749 -2.73209,-2.73212 -6.53752,-2.73212 -3.80539,0 -6.56189,2.73212 -2.7565,2.73209 -2.7565,6.53749 z"
     style="fill:#000000;stroke:#000000;stroke-width:0.04878742"
     id="path3009"
     inkscape:connector-curvature="0" />
  <path
     d="m 60.0625,247.87805 v 84.35347 q 0,3.21997 2.29303,5.51296 2.29299,2.29303 5.51296,2.29303 h 84.30468 q 3.21997,0 5.51298,-2.29303 2.29301,-2.29299 2.29301,-5.51296 v -84.35347 q 0,-3.21997 -2.29301,-5.48857 -2.29301,-2.26862 -5.51298,-2.26862 H 67.86849 q -3.21997,0 -5.51296,2.26862 -2.29303,2.2686 -2.29303,5.48857 z m 2.97604,1.60998 q 0,-2.63452 1.90272,-4.51284 1.9027,-1.8783 4.53722,-1.8783 h 81.0847 q 2.63453,0 4.53723,1.8783 1.90271,1.87832 1.90271,4.51284 v 81.1335 q 0,2.63451 -1.90271,4.51284 -1.9027,1.8783 -4.53723,1.8783 h -81.0847 q -2.63452,0 -4.53722,-1.8783 -1.90272,-1.87833 -1.90272,-4.51284 v -81.1335 z m 15.61198,18.49045 q 0,3.8054 2.73209,6.56189 2.7321,2.7565 6.53752,2.7565 3.80542,0 6.56191,-2.7565 2.75649,-2.75649 2.75649,-6.56189 0,-3.80543 -2.75649,-6.53752 -2.75649,-2.73209 -6.56191,-2.73209 -3.80542,0 -6.53752,2.73209 -2.73209,2.73209 -2.73209,6.53752 z m 0,44.1526 q 0,3.80542 2.73209,6.56192 2.7321,2.7565 6.53752,2.7565 3.80542,0 6.56191,-2.7565 2.75649,-2.7565 2.75649,-6.56192 0,-3.8054 -2.75649,-6.53749 -2.75649,-2.7321 -6.56191,-2.7321 -3.80542,0 -6.53752,2.7321 -2.73209,2.73209 -2.73209,6.53749 z m 22.1007,-22.05191 q 0,3.80543 2.73209,6.53752 2.7321,2.73209 6.53752,2.73209 3.80542,0 6.53752,-2.73209 2.73209,-2.73209 2.73209,-6.53752 0,-3.8054 -2.73209,-6.56189 -2.7321,-2.7565 -6.53752,-2.7565 -3.80542,0 -6.53752,2.7565 -2.73209,2.75649 -2.73209,6.56189 z m 22.05192,-22.10069 q 0,3.8054 2.75649,6.56189 2.75649,2.7565 6.5619,2.7565 3.80543,0 6.53752,-2.7565 2.73209,-2.75649 2.73209,-6.56189 0,-3.80543 -2.73209,-6.53752 -2.73209,-2.73209 -6.53752,-2.73209 -3.80541,0 -6.5619,2.73209 -2.75649,2.73209 -2.75649,6.53752 z m 0,44.1526 q 0,3.80542 2.75649,6.56192 2.75649,2.7565 6.5619,2.7565 3.80543,0 6.53752,-2.7565 2.73209,-2.7565 2.73209,-6.56192 0,-3.8054 -2.73209,-6.53749 -2.73209,-2.7321 -6.53752,-2.7321 -3.80541,0 -6.5619,2.7321 -2.75649,2.73209 -2.75649,6.53749 z"
     style="fill:#000000;stroke:#000000;stroke-width:0.04878743"
     id="path3019"
     inkscape:connector-curvature="0" />
  <path
     d="m 180.0625,247.84617 v 84.38265 q 0,3.22108 2.29382,5.5149 2.29379,2.29379 5.51487,2.29379 h 84.33383 q 3.22108,0 5.51489,-2.29379 2.29379,-2.29382 2.29379,-5.5149 v -84.38265 q 0,-3.22108 -2.29379,-5.49046 -2.29381,-2.2694 -5.51489,-2.2694 h -84.33383 q -3.22108,0 -5.51487,2.2694 -2.29382,2.26938 -2.29382,5.49046 z m 2.97707,1.61055 q 0,-2.63543 1.90335,-4.5144 1.90339,-1.87895 4.53881,-1.87895 h 81.11274 q 2.63545,0 4.53881,1.87895 1.90336,1.87897 1.90336,4.5144 v 81.16156 q 0,2.63542 -1.90336,4.5144 -1.90336,1.87897 -4.53881,1.87897 h -81.11274 q -2.63542,0 -4.53881,-1.87897 -1.90335,-1.87898 -1.90335,-4.5144 v -81.16156 z m 15.61737,18.49684 q 0,3.80674 2.73304,6.56417 2.73304,2.75745 6.53978,2.75745 3.80674,0 6.56419,-2.75745 2.75742,-2.75743 2.75742,-6.56417 0,-3.80674 -2.75742,-6.53978 -2.75745,-2.73303 -6.56419,-2.73303 -3.80674,0 -6.53978,2.73303 -2.73304,2.73304 -2.73304,6.53978 z m 0,22.10834 q 0,3.80674 2.73304,6.53977 2.73304,2.73305 6.53978,2.73305 3.80674,0 6.56419,-2.73305 2.75742,-2.73303 2.75742,-6.53977 0,-3.80672 -2.75742,-6.56417 -2.75745,-2.75745 -6.56419,-2.75745 -3.80674,0 -6.53978,2.75745 -2.73304,2.75745 -2.73304,6.56417 z m 0,22.05956 q 0,3.80672 2.73304,6.56416 2.73304,2.75745 6.53978,2.75745 3.80674,0 6.56419,-2.75745 2.75742,-2.75744 2.75742,-6.56416 0,-3.80674 -2.75742,-6.53979 -2.75745,-2.73303 -6.56419,-2.73303 -3.80674,0 -6.53978,2.73303 -2.73304,2.73305 -2.73304,6.53979 z m 44.1679,-44.1679 q 0,3.80674 2.75745,6.56417 2.75744,2.75745 6.56416,2.75745 3.80674,0 6.53978,-2.75745 2.73304,-2.75743 2.73304,-6.56417 0,-3.80674 -2.73304,-6.53978 -2.73304,-2.73303 -6.53978,-2.73303 -3.80672,0 -6.56416,2.73303 -2.75745,2.73304 -2.75745,6.53978 z m 0,22.10834 q 0,3.80674 2.75745,6.53977 2.75744,2.73305 6.56416,2.73305 3.80674,0 6.53978,-2.73305 2.73304,-2.73303 2.73304,-6.53977 0,-3.80672 -2.73304,-6.56417 -2.73304,-2.75745 -6.53978,-2.75745 -3.80672,0 -6.56416,2.75745 -2.75745,2.75745 -2.75745,6.56417 z m 0,22.05956 q 0,3.80672 2.75745,6.56416 2.75744,2.75745 6.56416,2.75745 3.80674,0 6.53978,-2.75745 2.73304,-2.75744 2.73304,-6.56416 0,-3.80674 -2.73304,-6.53979 -2.73304,-2.73303 -6.53978,-2.73303 -3.80672,0 -6.56416,2.73303 -2.75745,2.73305 -2.75745,6.53979 z"
     style="fill:#000000;stroke:#000000;stroke-width:0.0488043"
     id="path3029"
     inkscape:connector-curvature="0" />
</svg>
